<svg xmlns="http://www.w3.org/2000/svg" viewBox="0 0 980 600" font-family="Segoe UI, Tahoma, sans-serif">
  <rect width="980" height="600" fill="#f4f6f9"/>
  <!-- Sidebar (RTL: right side) -->
  <rect x="760" y="0" width="220" height="600" fill="#1B2D5B"/>
  <text x="870" y="44" fill="#fff" font-size="20" font-weight="700" text-anchor="middle">تسعيرك · Taseerak</text>
  <rect x="784" y="78" width="172" height="38" rx="10" fill="#ffffff22"/>
  <rect x="788" y="86" width="4" height="22" rx="2" fill="#F5831F"/>
  <text x="940" y="103" fill="#fff" font-size="14" text-anchor="end">Dashboard</text>
  <text x="940" y="150" fill="#b9c2da" font-size="14" text-anchor="end">New RFQ</text>
  <text x="940" y="190" fill="#b9c2da" font-size="14" text-anchor="end">Project (BOQ)</text>
  <text x="940" y="230" fill="#b9c2da" font-size="14" text-anchor="end">Orders</text>
  <text x="940" y="270" fill="#b9c2da" font-size="14" text-anchor="end">Messages</text>
  <text x="940" y="310" fill="#b9c2da" font-size="14" text-anchor="end">Market</text>

  <!-- Topbar -->
  <rect x="0" y="0" width="760" height="58" fill="#ffffff"/>
  <line x1="0" y1="58" x2="760" y2="58" stroke="#e9edf3"/>
  <text x="24" y="36" fill="#1B2D5B" font-size="16" font-weight="700">Contractor Dashboard</text>
  <circle cx="710" cy="29" r="14" fill="#f4f6f9"/><text x="710" y="34" font-size="13" text-anchor="middle">🔔</text>

  <!-- Greeting -->
  <text x="24" y="92" fill="#1B2D5B" font-size="20" font-weight="800">Hello, Al-Faisal Contracting 👋</text>
  <text x="24" y="114" fill="#7b859c" font-size="13">Post a request and reach the right specialist suppliers</text>

  <!-- Stat cards -->
  <g>
    <rect x="24" y="132" width="168" height="86" rx="14" fill="#fff" stroke="#e9edf3"/>
    <rect x="40" y="148" width="34" height="34" rx="9" fill="#1B2D5B22"/><text x="57" y="170" font-size="15" text-anchor="middle">📋</text>
    <text x="176" y="166" fill="#1B2D5B" font-size="22" font-weight="800" text-anchor="end">12</text>
    <text x="40" y="206" fill="#6b7280" font-size="12">Open RFQs</text>

    <rect x="204" y="132" width="168" height="86" rx="14" fill="#fff" stroke="#e9edf3"/>
    <rect x="220" y="148" width="34" height="34" rx="9" fill="#F5831F22"/><text x="237" y="170" font-size="15" text-anchor="middle">⏳</text>
    <text x="356" y="166" fill="#1B2D5B" font-size="22" font-weight="800" text-anchor="end">37</text>
    <text x="220" y="206" fill="#6b7280" font-size="12">Offers received</text>

    <rect x="384" y="132" width="168" height="86" rx="14" fill="#fff" stroke="#e9edf3"/>
    <rect x="400" y="148" width="34" height="34" rx="9" fill="#0F6E5622"/><text x="417" y="170" font-size="15" text-anchor="middle">✅</text>
    <text x="536" y="166" fill="#1B2D5B" font-size="22" font-weight="800" text-anchor="end">8</text>
    <text x="400" y="206" fill="#6b7280" font-size="12">Awarded</text>

    <rect x="564" y="132" width="172" height="86" rx="14" fill="#fff" stroke="#e9edf3"/>
    <rect x="580" y="148" width="34" height="34" rx="9" fill="#1B2D5B16"/><text x="597" y="170" font-size="15" text-anchor="middle">💰</text>
    <text x="720" y="166" fill="#1B2D5B" font-size="20" font-weight="800" text-anchor="end">1.2M</text>
    <text x="580" y="206" fill="#6b7280" font-size="12">SAR sourced</text>
  </g>

  <!-- Market pulse -->
  <rect x="24" y="232" width="712" height="120" rx="16" fill="#fff" stroke="#e9edf3"/>
  <text x="40" y="262" fill="#1B2D5B" font-size="14" font-weight="700">Market pulse · أسعار السوق</text>
  <g>
    <rect x="40" y="276" width="216" height="60" rx="12" fill="#f6f8fb"/>
    <text x="54" y="298" fill="#1B2D5B" font-size="12" font-weight="700">Ready-Mix C35</text>
    <text x="54" y="320" fill="#0F6E56" font-size="16" font-weight="800">285 SAR/m³</text>
    <text x="244" y="320" fill="#dc2626" font-size="11" font-weight="700" text-anchor="end">▲ 3%</text>

    <rect x="272" y="276" width="216" height="60" rx="12" fill="#f6f8fb"/>
    <text x="286" y="298" fill="#1B2D5B" font-size="12" font-weight="700">Rebar B500</text>
    <text x="286" y="320" fill="#0F6E56" font-size="16" font-weight="800">2,640 SAR/ton</text>
    <text x="476" y="320" fill="#0F6E56" font-size="11" font-weight="700" text-anchor="end">▼ 2%</text>

    <rect x="504" y="276" width="216" height="60" rx="12" fill="#f6f8fb"/>
    <text x="518" y="298" fill="#1B2D5B" font-size="12" font-weight="700">Gypsum board</text>
    <text x="518" y="320" fill="#0F6E56" font-size="16" font-weight="800">23 SAR/m²</text>
    <text x="708" y="320" fill="#9ca3af" font-size="11" font-weight="700" text-anchor="end">◆ stable</text>
  </g>

  <!-- Action center -->
  <rect x="24" y="366" width="712" height="44" rx="12" fill="#fff7ef" stroke="#F5831F66"/>
  <text x="40" y="393" fill="#1B2D5B" font-size="13" font-weight="700">🔔 5 requests got new offers — compare now →</text>

  <!-- RFQ cards -->
  <rect x="24" y="424" width="712" height="76" rx="14" fill="#fff" stroke="#e9edf3"/>
  <rect x="40" y="440" width="40" height="40" rx="11" fill="#1B2D5B14"/><text x="60" y="466" font-size="17" text-anchor="middle">📦</text>
  <text x="92" y="452" fill="#1B2D5B" font-size="14" font-weight="700">RFQ-1042 · Energy Centre — supply package</text>
  <rect x="92" y="462" width="70" height="18" rx="9" fill="#e8f0ff"/><text x="127" y="475" fill="#1B2D5B" font-size="10" text-anchor="middle">Civil</text>
  <rect x="170" y="462" width="64" height="18" rx="9" fill="#e7f6ef"/><text x="202" y="475" fill="#0F6E56" font-size="10" text-anchor="middle">Open</text>
  <rect x="242" y="462" width="92" height="18" rx="9" fill="#fff1e6"/><text x="288" y="475" fill="#d96f15" font-size="10" text-anchor="middle">⏰ 23h 10m</text>
  <rect x="648" y="440" width="72" height="40" rx="11" fill="#F5831F"/><text x="684" y="465" fill="#fff" font-size="16" font-weight="800" text-anchor="middle">9</text>

  <rect x="24" y="510" width="712" height="76" rx="14" fill="#fff" stroke="#e9edf3"/>
  <rect x="40" y="526" width="40" height="40" rx="11" fill="#1B2D5B14"/><text x="60" y="552" font-size="17" text-anchor="middle">📦</text>
  <text x="92" y="538" fill="#1B2D5B" font-size="14" font-weight="700">RFQ-1041 · Glass facade — Curtain Wall</text>
  <rect x="92" y="548" width="92" height="18" rx="9" fill="#f3e8ff"/><text x="138" y="561" fill="#7c3aed" font-size="10" text-anchor="middle">Architectural</text>
  <rect x="648" y="526" width="72" height="40" rx="11" fill="#eef1f6"/><text x="684" y="551" fill="#9ca3af" font-size="11" font-weight="700" text-anchor="middle">Awaiting</text>

  <text x="24" y="596" fill="#aab2c4" font-size="10">Mockup · Taseerak contractor dashboard (illustrative, not a live screenshot)</text>
</svg>
